<svg width="553" height="330" viewBox="0 0 553 330" fill="none" xmlns="http://www.w3.org/2000/svg">
<path fill-rule="evenodd" clip-rule="evenodd" d="M252.057 1.23277C216.285 7.04377 186.886 22.1828 160.889 48.1808C147.999 61.0708 140.015 71.5008 132.089 85.8068L128.441 92.3918L112.185 95.6878C61.8954 105.885 24.9984 121.531 10.0884 138.984C2.93842 147.352 0.0574223 154.562 0.00242229 164.221C-0.0365777 171.153 0.370425 173.088 3.05342 178.721C9.17042 191.562 20.4424 201.251 40.9294 211.278C60.1724 220.696 85.8614 228.616 117.17 234.784L128.412 236.998L132.075 243.61C144.275 265.629 165.04 288.46 184.822 301.603C203.581 314.067 224.928 322.931 246.929 327.392C260.913 330.227 295.168 329.945 309.429 326.878C342.371 319.793 370.712 304.471 393.929 281.196C405.547 269.548 414.884 257.252 421.768 244.533L425.929 236.846L432.429 235.732C436.004 235.12 446.129 232.881 454.929 230.757C508.402 217.853 539.365 200.938 549.71 178.98C552.454 173.155 552.896 171.112 552.912 164.2C552.927 157.102 552.543 155.395 549.577 149.369C543.623 137.275 532.034 127.652 512.021 118.184C493.385 109.367 466.404 101.267 439.036 96.2718L426.929 94.0618L422.429 85.9148C398.583 42.7428 358.515 13.1028 309.929 2.69379C296.741 -0.132212 265.336 -0.925226 252.057 1.23277ZM304.117 27.6398C338.492 34.7038 369.698 54.5258 390.049 82.2238C409.248 108.356 419.47 144.604 416.456 175.866C415.367 187.163 410.775 208.338 408.487 212.612C407.72 214.045 404.309 214.783 390.237 216.56C344.159 222.379 309.996 224.16 258.929 223.407C212.717 222.726 188.219 220.968 156.721 216.07L146.513 214.483L144.398 208.129C140.419 196.171 138.336 183.625 137.774 168.221C136.916 144.736 140.768 126.163 150.868 105.081C172.014 60.9438 211.169 32.5888 260.429 25.7388C270.678 24.3138 292.567 25.2668 304.117 27.6398ZM117.429 121.018C117.429 121.181 116.55 125.344 115.476 130.268C110.958 150.971 110.975 175.611 115.521 198.094C116.619 203.524 117.284 208.2 116.999 208.484C116.165 209.318 86.9534 201.815 74.4294 197.549C68.1044 195.395 57.5114 190.994 50.8894 187.768C28.1284 176.682 20.5644 166.079 28.5254 156.421C37.6854 145.308 63.2474 133.758 98.6644 124.729C112.637 121.166 117.429 120.219 117.429 121.018ZM447.196 123.801C493.955 133.792 527.429 150.655 527.429 164.221C527.429 175.889 503.008 190.92 467.447 201.138C452.36 205.473 437.454 209.079 436.902 208.528C436.661 208.286 436.908 206.543 437.452 204.655C441.972 188.961 443.579 161.372 441.002 143.721C440.078 137.396 438.714 129.858 437.971 126.971C437.227 124.084 436.809 121.721 437.041 121.721C437.274 121.721 441.844 122.657 447.196 123.801ZM391.901 244.471C388.114 250.396 378.72 261.208 371.993 267.384C353.584 284.283 329.678 296.433 304.117 301.879C289.491 304.996 264.173 305.006 249.741 301.9C222.378 296.013 198.471 283.332 179.446 264.615C171.946 257.238 161 243.816 161.817 243C162.038 242.778 165.754 243.068 170.074 243.643C225.291 250.993 314.241 251.049 375.941 243.772C384.184 242.8 391.543 241.941 392.294 241.863C393.335 241.755 393.242 242.374 391.901 244.471Z" fill="#4DB5FF"/>
</svg>
